<svg width="237" height="57" viewBox="0 0 237 57" fill="none" xmlns="http://www.w3.org/2000/svg">
<path d="M29.1501 19.7333H24.2741V0H9.64598C-7.73986 2.13333 3.14461 20.8 5.85351 24.5333C8.02064 27.52 19.398 41.4222 24.8159 48V28.2667C13.9802 26.6667 8.56242 19.7333 5.85351 14.9333C28.0666 33.0667 44.32 18.1333 47.5707 14.9333C44.1033 23.9817 33.8456 27.5924 29.1501 28.2667V48C29.6919 47.4667 34.1345 42.0267 47.5707 24.5333C61.0069 7.04 51.002 0.888889 44.32 0H29.1501V19.7333Z" fill="#00A99D"/>
<path d="M71.0664 23.9099H80.0661V18.4537C80.0661 17.4787 80.0042 16.8365 79.8804 16.5271C79.7851 16.2927 79.5851 16.0912 79.2804 15.9224C78.8709 15.6974 78.4375 15.5849 77.9804 15.5849H77.2947V15.0646H85.5802V15.5849H84.8945C84.4373 15.5849 84.004 15.6927 83.5945 15.9083C83.2898 16.0583 83.0802 16.288 82.966 16.5974C82.8612 16.8974 82.8088 17.5162 82.8088 18.4537V30.7583C82.8088 31.724 82.8707 32.3615 82.9945 32.6708C83.0898 32.9052 83.285 33.1068 83.5802 33.2755C83.9993 33.5005 84.4373 33.613 84.8945 33.613H85.5802V34.1333H77.2947V33.613H77.9804C78.7709 33.613 79.347 33.3833 79.7089 32.924C79.947 32.624 80.0661 31.9021 80.0661 30.7583V24.9505H71.0664V30.7583C71.0664 31.724 71.1283 32.3615 71.2521 32.6708C71.3473 32.9052 71.5473 33.1068 71.852 33.2755C72.2616 33.5005 72.6949 33.613 73.152 33.613H73.852V34.1333H65.5522V33.613H66.2379C67.0379 33.613 67.6188 33.3833 67.9807 32.924C68.2093 32.624 68.3236 31.9021 68.3236 30.7583V18.4537C68.3236 17.4787 68.2617 16.8365 68.1379 16.5271C68.0426 16.2927 67.8474 16.0912 67.5522 15.9224C67.1331 15.6974 66.6951 15.5849 66.2379 15.5849H65.5522V15.0646H73.852V15.5849H73.152C72.6949 15.5849 72.2616 15.6927 71.852 15.9083C71.5568 16.0583 71.3521 16.288 71.2378 16.5974C71.1235 16.8974 71.0664 17.5162 71.0664 18.4537V23.9099Z" fill="#00A99D"/>
<path d="M97.4792 14.6287C99.9934 14.6287 102.17 15.5708 104.008 17.4552C105.855 19.3302 106.779 21.674 106.779 24.4865C106.779 27.3833 105.85 29.788 103.993 31.7005C102.136 33.613 99.8887 34.5693 97.2506 34.5693C94.5841 34.5693 92.3413 33.6365 90.5223 31.7708C88.7128 29.9052 87.8081 27.4912 87.8081 24.5287C87.8081 21.5005 88.8557 19.0302 90.9509 17.1177C92.7698 15.4583 94.946 14.6287 97.4792 14.6287ZM97.2078 15.6552C95.4745 15.6552 94.0841 16.288 93.0365 17.5537C91.7318 19.1287 91.0794 21.4349 91.0794 24.4724C91.0794 27.5849 91.7556 29.9802 93.1079 31.6583C94.146 32.9333 95.5174 33.5708 97.2221 33.5708C99.0411 33.5708 100.541 32.8724 101.722 31.4755C102.912 30.0787 103.508 27.8755 103.508 24.8662C103.508 21.6037 102.855 19.1708 101.551 17.5677C100.503 16.2927 99.0554 15.6552 97.2078 15.6552Z" fill="#00A99D"/>
<path d="M122.021 24.4021C123.364 24.6833 124.368 25.1333 125.035 25.7521C125.959 26.6146 126.421 27.6693 126.421 28.9162C126.421 29.863 126.116 30.7724 125.506 31.6443C124.897 32.5068 124.059 33.1396 122.992 33.5427C121.935 33.9365 120.316 34.1333 118.135 34.1333H108.993V33.613H109.721C110.531 33.613 111.112 33.3599 111.464 32.8537C111.683 32.5255 111.792 31.8271 111.792 30.7583V18.4396C111.792 17.2583 111.654 16.513 111.378 16.2037C111.007 15.7912 110.454 15.5849 109.721 15.5849H108.993V15.0646H117.364C118.926 15.0646 120.178 15.1771 121.121 15.4021C122.549 15.7396 123.64 16.3396 124.392 17.2021C125.144 18.0552 125.521 19.0396 125.521 20.1552C125.521 21.1115 125.225 21.9693 124.635 22.7287C124.044 23.4787 123.173 24.0365 122.021 24.4021ZM114.535 23.6427C114.888 23.7083 115.288 23.7599 115.735 23.7974C116.192 23.8255 116.692 23.8396 117.235 23.8396C118.626 23.8396 119.668 23.6943 120.364 23.4037C121.068 23.1037 121.606 22.649 121.978 22.0396C122.349 21.4302 122.535 20.7646 122.535 20.0427C122.535 18.9271 122.073 17.9755 121.149 17.188C120.226 16.4005 118.878 16.0068 117.107 16.0068C116.154 16.0068 115.297 16.1099 114.535 16.3162V23.6427ZM114.535 32.7552C115.64 33.0083 116.73 33.1349 117.807 33.1349C119.53 33.1349 120.845 32.7552 121.749 31.9958C122.654 31.2271 123.106 30.2802 123.106 29.1552C123.106 28.4146 122.902 27.7021 122.492 27.0177C122.083 26.3333 121.416 25.7943 120.492 25.4005C119.568 25.0068 118.426 24.8099 117.064 24.8099C116.473 24.8099 115.969 24.8193 115.549 24.838C115.13 24.8568 114.792 24.8896 114.535 24.9365V32.7552Z" fill="#00A99D"/>
<path d="M139.305 14.6287C141.819 14.6287 143.996 15.5708 145.834 17.4552C147.681 19.3302 148.605 21.674 148.605 24.4865C148.605 27.3833 147.676 29.788 145.819 31.7005C143.962 33.613 141.715 34.5693 139.077 34.5693C136.41 34.5693 134.167 33.6365 132.348 31.7708C130.539 29.9052 129.634 27.4912 129.634 24.5287C129.634 21.5005 130.682 19.0302 132.777 17.1177C134.596 15.4583 136.772 14.6287 139.305 14.6287ZM139.034 15.6552C137.301 15.6552 135.91 16.288 134.863 17.5537C133.558 19.1287 132.905 21.4349 132.905 24.4724C132.905 27.5849 133.582 29.9802 134.934 31.6583C135.972 32.9333 137.343 33.5708 139.048 33.5708C140.867 33.5708 142.367 32.8724 143.548 31.4755C144.738 30.0787 145.334 27.8755 145.334 24.8662C145.334 21.6037 144.681 19.1708 143.377 17.5677C142.329 16.2927 140.881 15.6552 139.034 15.6552Z" fill="#00A99D"/>
<path d="M168.318 14.6287L168.761 21.1115H168.318C167.728 19.1708 166.885 17.774 165.79 16.9208C164.694 16.0677 163.38 15.6412 161.847 15.6412C160.561 15.6412 159.399 15.9646 158.361 16.6115C157.323 17.249 156.504 18.2708 155.904 19.6771C155.314 21.0833 155.018 22.8318 155.018 24.9224C155.018 26.6474 155.299 28.1427 155.861 29.4083C156.423 30.674 157.266 31.6443 158.39 32.3193C159.523 32.9943 160.814 33.3318 162.261 33.3318C163.518 33.3318 164.628 33.0693 165.59 32.5443C166.551 32.0099 167.609 30.9552 168.761 29.3802L169.204 29.6615C168.232 31.3583 167.099 32.6005 165.804 33.388C164.509 34.1755 162.971 34.5693 161.19 34.5693C157.98 34.5693 155.495 33.3974 153.733 31.0537C152.419 29.3099 151.761 27.2568 151.761 24.8943C151.761 22.9912 152.195 21.2427 153.061 19.649C153.928 18.0552 155.118 16.8224 156.633 15.9505C158.156 15.0693 159.818 14.6287 161.618 14.6287C163.018 14.6287 164.399 14.9662 165.761 15.6412C166.161 15.8474 166.447 15.9505 166.618 15.9505C166.875 15.9505 167.099 15.8615 167.29 15.6833C167.537 15.4302 167.713 15.0787 167.818 14.6287H168.318Z" fill="#00A99D"/>
<path d="M187.731 15.0646L187.945 19.5365H187.403C187.298 18.749 187.155 18.1865 186.974 17.849C186.679 17.3052 186.284 16.9068 185.788 16.6537C185.303 16.3912 184.66 16.2599 183.86 16.2599H181.131V30.8287C181.131 32.0005 181.26 32.7318 181.517 33.0224C181.879 33.4162 182.436 33.613 183.188 33.613H183.86V34.1333H175.646V33.613H176.332C177.151 33.613 177.731 33.3693 178.074 32.8818C178.284 32.5818 178.389 31.8974 178.389 30.8287V16.2599H176.06C175.155 16.2599 174.513 16.3255 174.132 16.4568C173.636 16.6349 173.213 16.9771 172.86 17.4833C172.508 17.9896 172.298 18.674 172.232 19.5365H171.689L171.917 15.0646H187.731Z" fill="#00A99D"/>
<path d="M199.573 14.6287C202.087 14.6287 204.263 15.5708 206.101 17.4552C207.949 19.3302 208.873 21.674 208.873 24.4865C208.873 27.3833 207.944 29.788 206.087 31.7005C204.23 33.613 201.982 34.5693 199.344 34.5693C196.678 34.5693 194.435 33.6365 192.616 31.7708C190.807 29.9052 189.902 27.4912 189.902 24.5287C189.902 21.5005 190.95 19.0302 193.045 17.1177C194.864 15.4583 197.04 14.6287 199.573 14.6287ZM199.302 15.6552C197.568 15.6552 196.178 16.288 195.13 17.5537C193.826 19.1287 193.173 21.4349 193.173 24.4724C193.173 27.5849 193.849 29.9802 195.202 31.6583C196.24 32.9333 197.611 33.5708 199.316 33.5708C201.135 33.5708 202.635 32.8724 203.816 31.4755C205.006 30.0787 205.601 27.8755 205.601 24.8662C205.601 21.6037 204.949 19.1708 203.644 17.5677C202.597 16.2927 201.149 15.6552 199.302 15.6552Z" fill="#00A99D"/>
<path d="M222.572 34.1333L215.086 18.088V30.8287C215.086 32.0005 215.215 32.7318 215.472 33.0224C215.824 33.4162 216.381 33.613 217.143 33.613H217.829V34.1333H211.086V33.613H211.772C212.591 33.613 213.172 33.3693 213.515 32.8818C213.724 32.5818 213.829 31.8974 213.829 30.8287V18.3693C213.829 17.5255 213.734 16.9162 213.543 16.5412C213.41 16.2693 213.163 16.0443 212.801 15.8662C212.448 15.6787 211.877 15.5849 211.086 15.5849V15.0646H216.572L223.6 29.9849L230.514 15.0646H236V15.5849H235.328C234.5 15.5849 233.914 15.8287 233.571 16.3162C233.362 16.6162 233.257 17.3005 233.257 18.3693V30.8287C233.257 32.0005 233.39 32.7318 233.657 33.0224C234.009 33.4162 234.567 33.613 235.328 33.613H236V34.1333H227.772V33.613H228.457C229.286 33.613 229.867 33.3693 230.2 32.8818C230.41 32.5818 230.514 31.8974 230.514 30.8287V18.088L223.043 34.1333H222.572Z" fill="#00A99D"/>
<path d="M67.6025 47.2266L67.9263 47.252C68.908 47.252 69.5153 46.6405 69.748 45.4175C69.765 45.299 69.7777 45.2017 69.7861 45.1255C69.7946 45.0493 69.7988 44.9753 69.7988 44.9033C69.7988 44.6113 69.7354 44.368 69.6084 44.1733C69.4814 43.9744 69.2762 43.875 68.9927 43.875C68.5907 43.875 68.2733 44.0083 68.0405 44.2749C67.812 44.5415 67.6089 44.9224 67.4312 45.4175L67.2534 45.4365C66.9614 45.043 66.7266 44.751 66.5488 44.5605C67.2217 43.7142 68.1654 43.291 69.3799 43.291C70.1416 43.291 70.7256 43.4349 71.1318 43.7227C71.5423 44.0062 71.7476 44.3997 71.7476 44.9033C71.7476 45.0176 71.7349 45.1424 71.7095 45.2778C71.6164 45.7941 71.4006 46.2088 71.062 46.522C70.7277 46.8309 70.277 47.0827 69.71 47.2773L69.5259 47.3472C69.5005 47.3726 69.4878 47.3979 69.4878 47.4233C69.4878 47.4487 69.509 47.4678 69.5513 47.4805L69.6973 47.5186L69.8496 47.5376L70.3003 47.6709C70.5034 47.7301 70.6727 47.8084 70.8081 47.9058C70.9478 47.9989 71.062 48.1343 71.1509 48.312C71.244 48.4855 71.2905 48.7098 71.2905 48.9849C71.2905 49.1287 71.2694 49.3192 71.2271 49.5562C71.1509 49.9412 70.9922 50.2967 70.751 50.6226C70.514 50.9442 70.2157 51.2235 69.856 51.4604C69.4963 51.6932 69.1006 51.873 68.6689 52C68.2415 52.1227 67.8078 52.1841 67.3677 52.1841C66.2039 52.1841 65.4316 51.8498 65.0508 51.1812C65.4909 50.741 65.8337 50.3687 66.0791 50.064L66.2505 50.0767C66.2505 51.0881 66.6271 51.5938 67.3804 51.5938C67.6851 51.5938 67.9686 51.5028 68.231 51.3208C68.4933 51.1346 68.7155 50.8976 68.8975 50.6099C69.0794 50.3221 69.2021 50.0301 69.2656 49.7339C69.3164 49.48 69.3418 49.2557 69.3418 49.061C69.3418 48.7394 69.2804 48.4919 69.1577 48.3184C69.035 48.1406 68.8742 48.02 68.6753 47.9565C68.4764 47.8931 68.2352 47.8613 67.9517 47.8613C67.7485 47.8613 67.592 47.8677 67.4819 47.8804L67.6025 47.2266ZM74.8389 47.2266L75.1626 47.252C76.1444 47.252 76.7516 46.6405 76.9844 45.4175C77.0013 45.299 77.014 45.2017 77.0225 45.1255C77.0309 45.0493 77.0352 44.9753 77.0352 44.9033C77.0352 44.6113 76.9717 44.368 76.8447 44.1733C76.7178 43.9744 76.5125 43.875 76.229 43.875C75.827 43.875 75.5096 44.0083 75.2769 44.2749C75.0483 44.5415 74.8452 44.9224 74.6675 45.4175L74.4897 45.4365C74.1978 45.043 73.9629 44.751 73.7852 44.5605C74.458 43.7142 75.4017 43.291 76.6162 43.291C77.3779 43.291 77.9619 43.4349 78.3682 43.7227C78.7786 44.0062 78.9839 44.3997 78.9839 44.9033C78.9839 45.0176 78.9712 45.1424 78.9458 45.2778C78.8527 45.7941 78.6369 46.2088 78.2983 46.522C77.964 46.8309 77.5133 47.0827 76.9463 47.2773L76.7622 47.3472C76.7368 47.3726 76.7241 47.3979 76.7241 47.4233C76.7241 47.4487 76.7453 47.4678 76.7876 47.4805L76.9336 47.5186L77.0859 47.5376L77.5366 47.6709C77.7397 47.7301 77.909 47.8084 78.0444 47.9058C78.1841 47.9989 78.2983 48.1343 78.3872 48.312C78.4803 48.4855 78.5269 48.7098 78.5269 48.9849C78.5269 49.1287 78.5057 49.3192 78.4634 49.5562C78.3872 49.9412 78.2285 50.2967 77.9873 50.6226C77.7503 50.9442 77.452 51.2235 77.0923 51.4604C76.7326 51.6932 76.3369 51.873 75.9053 52C75.4779 52.1227 75.0441 52.1841 74.604 52.1841C73.4403 52.1841 72.668 51.8498 72.2871 51.1812C72.7272 50.741 73.07 50.3687 73.3154 50.064L73.4868 50.0767C73.4868 51.0881 73.8634 51.5938 74.6167 51.5938C74.9214 51.5938 75.2049 51.5028 75.4673 51.3208C75.7297 51.1346 75.9518 50.8976 76.1338 50.6099C76.3158 50.3221 76.4385 50.0301 76.502 49.7339C76.5527 49.48 76.5781 49.2557 76.5781 49.061C76.5781 48.7394 76.5168 48.4919 76.394 48.3184C76.2713 48.1406 76.1105 48.02 75.9116 47.9565C75.7127 47.8931 75.4715 47.8613 75.188 47.8613C74.9849 47.8613 74.8283 47.8677 74.7183 47.8804L74.8389 47.2266ZM88.9116 46.5283L87.8325 52.0508L87.3945 52.0254L86.9502 52L86.4932 52.0254L86.0361 52.0508L87.2612 45.7729H91.7363C91.6771 45.8703 91.6284 46.012 91.5903 46.1982C91.5734 46.2829 91.5649 46.431 91.5649 46.6426C90.6763 46.5664 89.7918 46.5283 88.9116 46.5283ZM91.6221 49.0483C91.7152 48.5575 91.8802 48.0962 92.1172 47.6646C92.3584 47.2329 92.6525 46.869 92.9995 46.5728C93.3465 46.2765 93.738 46.048 94.1738 45.8872C94.6097 45.7222 95.071 45.6396 95.5576 45.6396C96.1289 45.6396 96.624 45.737 97.043 45.9316C97.4619 46.1221 97.7835 46.3993 98.0078 46.7632C98.2363 47.1229 98.3506 47.5503 98.3506 48.0454C98.3506 48.2739 98.3252 48.513 98.2744 48.7627C98.1475 49.4229 97.8957 50.0132 97.519 50.5337C97.1424 51.05 96.6748 51.4541 96.1162 51.7461C95.5576 52.0381 94.9461 52.1841 94.2817 52.1841C93.7316 52.1841 93.2492 52.0868 92.8345 51.8921C92.424 51.6974 92.1045 51.416 91.876 51.0479C91.6517 50.6797 91.5396 50.2502 91.5396 49.7593C91.5396 49.5181 91.5671 49.2811 91.6221 49.0483ZM93.5581 49.0103C93.4862 49.3953 93.4502 49.7424 93.4502 50.0513C93.4502 51.0796 93.7676 51.5938 94.4023 51.5938C94.8594 51.5938 95.2677 51.2869 95.6274 50.6733C95.9871 50.0597 96.2453 49.3488 96.4019 48.5405C96.4653 48.2401 96.4971 47.9502 96.4971 47.6709C96.4971 47.235 96.4167 46.8838 96.2559 46.6172C96.0951 46.3464 95.8538 46.2109 95.5322 46.2109C95.0371 46.2109 94.6224 46.4691 94.2881 46.9854C93.958 47.4974 93.7147 48.1724 93.5581 49.0103ZM98.7695 51.2446L99.3979 50.229L100.369 48.6167L101.194 47.2075C101.431 46.7928 101.689 46.3146 101.969 45.7729C102.028 45.7729 102.087 45.7729 102.146 45.7729C102.214 45.7856 102.265 45.7941 102.299 45.7983L102.623 45.8237L102.959 45.7983L103.295 45.7729L103.499 47.0425L103.746 48.623L103.956 49.8545L104.203 51.2446H104.87C104.793 51.4224 104.736 51.6107 104.698 51.8096C104.664 52.0085 104.647 52.1989 104.647 52.3809H104.521C104.432 52.2624 104.288 52.1735 104.089 52.1143C104 52.0889 103.884 52.0656 103.74 52.0444C103.6 52.0275 103.46 52.019 103.321 52.019C103.063 52.019 102.811 52.0169 102.565 52.0127C102.324 52.0085 102.091 52.0042 101.867 52H100.737C100.407 52 100.132 52.0021 99.9121 52.0063C99.6921 52.0106 99.4826 52.0148 99.2837 52.019C99.1271 52.019 98.9917 52.0254 98.8774 52.0381C98.7632 52.055 98.6299 52.0804 98.4775 52.1143C98.249 52.1735 98.0607 52.2624 97.9126 52.3809H97.792C97.8639 52.2751 97.9253 52.0825 97.9761 51.8032C98.0015 51.6678 98.0142 51.4816 98.0142 51.2446H98.7695ZM102.267 51.2446L101.772 47.5503C101.315 48.367 100.915 49.0864 100.572 49.7085C100.229 50.3306 99.9544 50.8426 99.7471 51.2446H102.267ZM110.405 50.9336L110.379 51.1812C110.379 51.3081 110.42 51.3991 110.5 51.4541C110.585 51.5049 110.739 51.5303 110.963 51.5303L110.913 51.8286C110.337 52.0656 109.918 52.1841 109.656 52.1841C109.36 52.1841 109.116 52.0994 108.926 51.9302C108.735 51.7609 108.615 51.5282 108.564 51.2319C108.344 51.5197 108.065 51.7503 107.726 51.9238C107.388 52.0973 107.051 52.1841 106.717 52.1841C106.251 52.1841 105.877 52.0719 105.593 51.8477C105.31 51.6191 105.168 51.2975 105.168 50.8828C105.168 50.7516 105.181 50.612 105.206 50.4639C105.282 50.0661 105.426 49.7466 105.638 49.5054C105.849 49.2599 106.135 49.061 106.495 48.9087C106.664 48.8368 106.875 48.7627 107.129 48.6865C107.383 48.6104 107.66 48.5363 107.961 48.4644C108.435 48.3543 108.773 48.2401 108.977 48.1216C109.053 48.0623 109.116 47.9925 109.167 47.9121C109.218 47.8275 109.254 47.7301 109.275 47.6201C109.275 47.2731 109.175 46.9959 108.977 46.7886C108.782 46.577 108.543 46.4712 108.259 46.4712C108.01 46.4712 107.758 46.5199 107.504 46.6172C107.25 46.7103 107.034 46.8203 106.856 46.9473C106.679 47.0742 106.567 47.1842 106.52 47.2773H106.431L106.406 46.5093C106.761 46.23 107.17 46.0163 107.631 45.8682C108.096 45.7158 108.545 45.6396 108.977 45.6396C109.243 45.6396 109.506 45.665 109.764 45.7158C110.022 45.7666 110.25 45.847 110.449 45.957C110.652 46.0628 110.817 46.2088 110.944 46.395C111.071 46.5812 111.135 46.797 111.135 47.0425C111.135 47.1271 111.122 47.2371 111.097 47.3726L110.405 50.9336ZM109.065 48.6675L108.646 48.8008C108.549 48.8304 108.454 48.8621 108.361 48.896C108.272 48.9256 108.185 48.9574 108.101 48.9912C108.02 49.0208 107.948 49.0526 107.885 49.0864C107.826 49.116 107.756 49.1584 107.675 49.2134C107.358 49.4334 107.146 49.7995 107.041 50.3115C107.015 50.4258 107.002 50.5422 107.002 50.6606C107.002 51.1092 107.184 51.3335 107.548 51.3335C108.166 51.3335 108.589 50.8659 108.818 49.9307L109.065 48.6675ZM122.224 48.6421C123.265 48.7902 123.786 49.207 123.786 49.8926C123.786 49.9899 123.773 50.1063 123.748 50.2417C123.688 50.5379 123.559 50.8045 123.36 51.0415C123.161 51.2743 122.903 51.4753 122.586 51.6445C122.438 51.7207 122.277 51.7905 122.104 51.854C121.93 51.9175 121.746 51.9704 121.551 52.0127C121.357 52.0592 121.162 52.0931 120.967 52.1143C120.773 52.1354 120.563 52.146 120.339 52.146C119.167 52.146 118.361 52.0063 117.92 51.7271C118.204 51.2023 118.369 50.8765 118.416 50.7495H118.517C118.627 50.9865 118.834 51.1663 119.139 51.2891C119.444 51.4076 119.778 51.4668 120.142 51.4668C120.599 51.4668 120.991 51.3589 121.316 51.1431C121.642 50.923 121.841 50.6226 121.913 50.2417C121.938 50.1401 121.951 50.0407 121.951 49.9434C121.951 49.3467 121.566 49.0483 120.796 49.0483C120.673 49.0483 120.567 49.0483 120.479 49.0483C120.39 49.0483 120.273 49.0568 120.129 49.0737L120.275 48.3057C120.339 48.3141 120.428 48.3205 120.542 48.3247C120.66 48.3289 120.792 48.3311 120.936 48.3311C121.266 48.3311 121.541 48.2358 121.761 48.0454C121.985 47.8507 122.131 47.5863 122.199 47.252L122.224 47.0298C122.224 46.7759 122.129 46.5791 121.938 46.4395C121.752 46.2956 121.484 46.2236 121.132 46.2236C120.819 46.2236 120.495 46.2871 120.161 46.4141C119.831 46.5368 119.609 46.6997 119.495 46.9028H119.374C119.374 46.6066 119.332 46.2892 119.247 45.9507C119.916 45.7349 120.709 45.627 121.627 45.627C122.368 45.627 122.952 45.7433 123.379 45.9761C123.595 46.0903 123.758 46.23 123.868 46.395C123.978 46.5601 124.033 46.7547 124.033 46.979L124.008 47.252C123.843 48.0814 123.248 48.5448 122.224 48.6421ZM129.664 50.9336L129.638 51.1812C129.638 51.3081 129.678 51.3991 129.759 51.4541C129.843 51.5049 129.998 51.5303 130.222 51.5303L130.171 51.8286C129.596 52.0656 129.177 52.1841 128.915 52.1841C128.618 52.1841 128.375 52.0994 128.185 51.9302C127.994 51.7609 127.874 51.5282 127.823 51.2319C127.603 51.5197 127.323 51.7503 126.985 51.9238C126.646 52.0973 126.31 52.1841 125.976 52.1841C125.51 52.1841 125.136 52.0719 124.852 51.8477C124.569 51.6191 124.427 51.2975 124.427 50.8828C124.427 50.7516 124.439 50.612 124.465 50.4639C124.541 50.0661 124.685 49.7466 124.896 49.5054C125.108 49.2599 125.394 49.061 125.753 48.9087C125.923 48.8368 126.134 48.7627 126.388 48.6865C126.642 48.6104 126.919 48.5363 127.22 48.4644C127.694 48.3543 128.032 48.2401 128.235 48.1216C128.312 48.0623 128.375 47.9925 128.426 47.9121C128.477 47.8275 128.513 47.7301 128.534 47.6201C128.534 47.2731 128.434 46.9959 128.235 46.7886C128.041 46.577 127.802 46.4712 127.518 46.4712C127.268 46.4712 127.017 46.5199 126.763 46.6172C126.509 46.7103 126.293 46.8203 126.115 46.9473C125.938 47.0742 125.825 47.1842 125.779 47.2773H125.69L125.665 46.5093C126.02 46.23 126.428 46.0163 126.89 45.8682C127.355 45.7158 127.804 45.6396 128.235 45.6396C128.502 45.6396 128.764 45.665 129.022 45.7158C129.281 45.7666 129.509 45.847 129.708 45.957C129.911 46.0628 130.076 46.2088 130.203 46.395C130.33 46.5812 130.394 46.797 130.394 47.0425C130.394 47.1271 130.381 47.2371 130.355 47.3726L129.664 50.9336ZM128.324 48.6675L127.905 48.8008C127.808 48.8304 127.713 48.8621 127.62 48.896C127.531 48.9256 127.444 48.9574 127.359 48.9912C127.279 49.0208 127.207 49.0526 127.144 49.0864C127.084 49.116 127.014 49.1584 126.934 49.2134C126.617 49.4334 126.405 49.7995 126.299 50.3115C126.274 50.4258 126.261 50.5422 126.261 50.6606C126.261 51.1092 126.443 51.3335 126.807 51.3335C127.425 51.3335 127.848 50.8659 128.077 49.9307L128.324 48.6675ZM138.753 43.145L138.658 43.3862L138.569 43.6909L138.55 44.002L138.544 44.2622C138.028 44.1522 137.403 44.0972 136.671 44.0972C135.889 44.0972 135.233 44.2008 134.704 44.4082C134.175 44.6156 133.768 44.8949 133.485 45.2461C133.201 45.5931 133.015 45.9803 132.926 46.4077C133.239 46.175 133.605 45.9888 134.024 45.8491C134.443 45.7095 134.862 45.6396 135.281 45.6396C135.853 45.6396 136.348 45.737 136.767 45.9316C137.186 46.1221 137.507 46.3993 137.731 46.7632C137.96 47.1229 138.074 47.5503 138.074 48.0454C138.074 48.2739 138.049 48.513 137.998 48.7627C137.871 49.4229 137.619 50.0132 137.243 50.5337C136.866 51.05 136.398 51.4541 135.84 51.7461C135.281 52.0381 134.67 52.1841 134.005 52.1841C133.455 52.1841 132.973 52.0868 132.558 51.8921C132.148 51.6974 131.828 51.416 131.6 51.0479C131.375 50.6797 131.263 50.2502 131.263 49.7593C131.263 49.5181 131.291 49.2811 131.346 49.0483C131.595 47.7661 131.877 46.7526 132.19 46.0078C132.507 45.263 132.926 44.6833 133.447 44.2686C133.972 43.8496 134.646 43.5576 135.472 43.3926C136.301 43.2275 137.395 43.145 138.753 43.145ZM133.282 49.0103C133.21 49.3953 133.174 49.7424 133.174 50.0513C133.174 51.0796 133.491 51.5938 134.126 51.5938C134.435 51.5938 134.725 51.4456 134.996 51.1494C135.266 50.8532 135.497 50.4723 135.688 50.0068C135.878 49.5413 136.024 49.0526 136.125 48.5405C136.189 48.2401 136.221 47.9502 136.221 47.6709C136.221 47.235 136.14 46.8838 135.979 46.6172C135.819 46.3464 135.577 46.2109 135.256 46.2109C134.761 46.2109 134.346 46.4691 134.012 46.9854C133.682 47.4974 133.438 48.1724 133.282 49.0103ZM138.582 49.0483C138.675 48.5575 138.84 48.0962 139.077 47.6646C139.318 47.2329 139.612 46.869 139.959 46.5728C140.306 46.2765 140.698 46.048 141.134 45.8872C141.57 45.7222 142.031 45.6396 142.518 45.6396C143.089 45.6396 143.584 45.737 144.003 45.9316C144.422 46.1221 144.743 46.3993 144.968 46.7632C145.196 47.1229 145.311 47.5503 145.311 48.0454C145.311 48.2739 145.285 48.513 145.234 48.7627C145.107 49.4229 144.856 50.0132 144.479 50.5337C144.102 51.05 143.635 51.4541 143.076 51.7461C142.518 52.0381 141.906 52.1841 141.242 52.1841C140.692 52.1841 140.209 52.0868 139.794 51.8921C139.384 51.6974 139.064 51.416 138.836 51.0479C138.612 50.6797 138.5 50.2502 138.5 49.7593C138.5 49.5181 138.527 49.2811 138.582 49.0483ZM140.518 49.0103C140.446 49.3953 140.41 49.7424 140.41 50.0513C140.41 51.0796 140.728 51.5938 141.362 51.5938C141.819 51.5938 142.228 51.2869 142.587 50.6733C142.947 50.0597 143.205 49.3488 143.362 48.5405C143.425 48.2401 143.457 47.9502 143.457 47.6709C143.457 47.235 143.377 46.8838 143.216 46.6172C143.055 46.3464 142.814 46.2109 142.492 46.2109C141.997 46.2109 141.582 46.4691 141.248 46.9854C140.918 47.4974 140.675 48.1724 140.518 49.0103ZM149.894 46.5283L148.814 52.0508C148.734 52.0508 148.654 52.0508 148.573 52.0508C148.484 52.0381 148.417 52.0296 148.37 52.0254L147.932 52L147.475 52.0254L147.018 52.0508L148.097 46.5283C147.974 46.5283 147.843 46.5304 147.704 46.5347C147.564 46.5347 147.416 46.5368 147.259 46.541C147.166 46.541 147.088 46.5431 147.024 46.5474C146.961 46.5516 146.804 46.5685 146.555 46.5981L146.085 46.6426C146.093 46.6003 146.119 46.5326 146.161 46.4395L146.237 46.1982L146.244 45.9824L146.25 45.7729H149.138H152.039C152.022 45.8491 151.997 45.9211 151.963 45.9888C151.95 46.0184 151.938 46.0522 151.925 46.0903C151.912 46.1284 151.902 46.1644 151.893 46.1982L151.88 46.4204V46.522C151.88 46.5685 151.876 46.6087 151.868 46.6426L151.392 46.5918L150.731 46.541L149.894 46.5283ZM152.756 45.7729L153.232 45.7983L153.664 45.811L154.083 45.7983L154.553 45.7729L154.045 48.4136H155.175C155.729 48.4136 156.176 48.5321 156.514 48.769C156.853 49.006 157.022 49.3551 157.022 49.8164C157.022 49.9264 157.009 50.0555 156.984 50.2036C156.916 50.5506 156.747 50.8617 156.476 51.1367C156.209 51.4076 155.886 51.6191 155.505 51.7715C155.124 51.9238 154.741 52 154.356 52H151.55L152.756 45.7729ZM158.66 45.7729L158.895 45.7856L159.117 45.8047L159.358 45.8174L159.542 45.8237L159.732 45.8174L159.98 45.8047L160.202 45.7856L160.45 45.7729L159.231 52.0508L158.787 52.0254L158.349 52L157.892 52.0254L157.435 52.0508L158.66 45.7729ZM153.448 51.4541H153.651C153.965 51.4541 154.269 51.3462 154.565 51.1304C154.862 50.9146 155.048 50.6056 155.124 50.2036C155.149 50.064 155.162 49.9391 155.162 49.8291C155.162 49.2282 154.836 48.9277 154.185 48.9277H153.937L153.448 51.4541ZM169.438 49.7212C169.713 49.4377 170.001 49.1309 170.301 48.8008C170.445 48.6442 170.555 48.5236 170.631 48.439C170.771 48.2824 170.947 48.0814 171.158 47.8359L171.952 46.8901L172.853 45.7729L173.151 45.792L173.532 45.811C173.676 45.811 173.892 45.7983 174.18 45.7729L172.961 52.0508L172.523 52.0254L172.079 52C172.057 52 171.926 52.0085 171.685 52.0254C171.444 52.0423 171.27 52.0508 171.165 52.0508L171.945 48.0454C170.743 49.2726 169.599 50.6077 168.511 52.0508L168.232 52.0254L167.876 52L167.458 52.0254L167.185 52.0508L168.41 45.7729C168.558 45.7729 168.702 45.7793 168.841 45.792C168.981 45.8005 169.131 45.811 169.292 45.8237C169.339 45.8237 169.478 45.8153 169.711 45.7983C169.948 45.7814 170.113 45.7729 170.206 45.7729L169.438 49.7212ZM182.146 45.7729C182.29 45.7899 182.442 45.8047 182.603 45.8174C182.768 45.8301 182.91 45.8364 183.028 45.8364C183.316 45.8364 183.621 45.8153 183.942 45.7729L183.409 48.5405L183.523 48.5532L184.203 47.9629L185.072 47.1694L185.79 46.4966L186.551 45.7729L186.71 45.792L186.926 45.8174L187.097 45.8237L187.269 45.8174L187.44 45.7983L187.656 45.7729L187.643 45.8491C187.33 46.1665 186.879 46.5664 186.291 47.0488C185.741 47.5059 185.318 47.874 185.021 48.1533L185.745 49.8037C186.003 50.4089 186.289 51.1283 186.602 51.9619L186.577 52.0508L186.088 52.0254L185.605 52L185.098 52.0254L184.603 52.0508C184.26 51.0225 183.921 50.1592 183.587 49.4609C183.507 49.279 183.411 49.1414 183.301 49.0483L182.717 52.0508L182.273 52.0254L181.835 52L181.378 52.0254L180.921 52.0508L182.146 45.7729ZM192.531 50.9336L192.505 51.1812C192.505 51.3081 192.546 51.3991 192.626 51.4541C192.711 51.5049 192.865 51.5303 193.089 51.5303L193.039 51.8286C192.463 52.0656 192.044 52.1841 191.782 52.1841C191.486 52.1841 191.242 52.0994 191.052 51.9302C190.861 51.7609 190.741 51.5282 190.69 51.2319C190.47 51.5197 190.191 51.7503 189.852 51.9238C189.514 52.0973 189.177 52.1841 188.843 52.1841C188.377 52.1841 188.003 52.0719 187.719 51.8477C187.436 51.6191 187.294 51.2975 187.294 50.8828C187.294 50.7516 187.307 50.612 187.332 50.4639C187.408 50.0661 187.552 49.7466 187.764 49.5054C187.975 49.2599 188.261 49.061 188.621 48.9087C188.79 48.8368 189.001 48.7627 189.255 48.6865C189.509 48.6104 189.786 48.5363 190.087 48.4644C190.561 48.3543 190.899 48.2401 191.103 48.1216C191.179 48.0623 191.242 47.9925 191.293 47.9121C191.344 47.8275 191.38 47.7301 191.401 47.6201C191.401 47.2731 191.301 46.9959 191.103 46.7886C190.908 46.577 190.669 46.4712 190.385 46.4712C190.136 46.4712 189.884 46.5199 189.63 46.6172C189.376 46.7103 189.16 46.8203 188.982 46.9473C188.805 47.0742 188.693 47.1842 188.646 47.2773H188.557L188.532 46.5093C188.887 46.23 189.296 46.0163 189.757 45.8682C190.222 45.7158 190.671 45.6396 191.103 45.6396C191.369 45.6396 191.632 45.665 191.89 45.7158C192.148 45.7666 192.376 45.847 192.575 45.957C192.778 46.0628 192.943 46.2088 193.07 46.395C193.197 46.5812 193.261 46.797 193.261 47.0425C193.261 47.1271 193.248 47.2371 193.223 47.3726L192.531 50.9336ZM191.191 48.6675L190.772 48.8008C190.675 48.8304 190.58 48.8621 190.487 48.896C190.398 48.9256 190.311 48.9574 190.227 48.9912C190.146 49.0208 190.074 49.0526 190.011 49.0864C189.951 49.116 189.882 49.1584 189.801 49.2134C189.484 49.4334 189.272 49.7995 189.167 50.3115C189.141 50.4258 189.128 50.5422 189.128 50.6606C189.128 51.1092 189.31 51.3335 189.674 51.3335C190.292 51.3335 190.715 50.8659 190.944 49.9307L191.191 48.6675ZM196.263 48.0962C196.263 48.5575 196.507 48.7881 196.993 48.7881C197.378 48.7881 197.759 48.6442 198.136 48.3564L198.644 45.7729C198.787 45.7729 198.929 45.7793 199.069 45.792C199.208 45.8005 199.361 45.811 199.526 45.8237C199.568 45.8237 199.708 45.8153 199.945 45.7983C200.182 45.7814 200.347 45.7729 200.44 45.7729L199.215 52.0508L198.771 52.0254L198.333 52C198.311 52 198.18 52.0085 197.939 52.0254C197.698 52.0423 197.524 52.0508 197.418 52.0508L197.996 49.1499C197.34 49.4715 196.633 49.6323 195.876 49.6323C195.482 49.6323 195.144 49.5117 194.86 49.2705C194.581 49.0251 194.441 48.7204 194.441 48.3564L194.473 48.1089L194.924 45.7729C195.072 45.7729 195.216 45.7793 195.355 45.792C195.495 45.8005 195.645 45.811 195.806 45.8237C195.853 45.8237 195.992 45.8153 196.225 45.7983C196.462 45.7814 196.627 45.7729 196.72 45.7729L196.263 48.0962ZM202.916 48.915C202.844 49.2367 202.808 49.5054 202.808 49.7212C202.808 50.2078 202.939 50.5993 203.201 50.8955C203.464 51.1875 203.857 51.3335 204.382 51.3335C204.644 51.3335 204.924 51.2806 205.22 51.1748C205.516 51.0648 205.783 50.923 206.02 50.7495L206.14 50.8701L205.721 51.5938C205.446 51.7673 205.122 51.909 204.75 52.019C204.382 52.1291 204.048 52.1841 203.747 52.1841C203.15 52.1841 202.636 52.0825 202.205 51.8794C201.777 51.6763 201.456 51.3864 201.24 51.0098C201.028 50.6289 200.922 50.174 200.922 49.645C200.922 49.3446 200.954 49.0505 201.018 48.7627C201.14 48.1576 201.369 47.618 201.703 47.144C202.042 46.6659 202.465 46.2956 202.973 46.0332C203.485 45.7708 204.05 45.6396 204.667 45.6396C206.14 45.6396 206.876 46.3633 206.876 47.8105C206.876 48.1576 206.838 48.5257 206.762 48.915H202.916ZM205.086 48.293C205.154 47.9502 205.188 47.6349 205.188 47.3472C205.188 46.5897 204.981 46.2109 204.566 46.2109C203.885 46.2109 203.373 46.9049 203.03 48.293H205.086ZM212.888 47.563H212.583C212.583 47.1525 212.49 46.8245 212.304 46.5791C212.122 46.3337 211.855 46.2109 211.504 46.2109C211.14 46.2109 210.812 46.3485 210.52 46.6235C210.228 46.8986 209.991 47.2329 209.809 47.6265C209.631 48.02 209.507 48.3903 209.435 48.7373C209.367 49.0843 209.333 49.4038 209.333 49.6958C209.333 50.7876 209.854 51.3335 210.895 51.3335C211.021 51.3335 211.148 51.3208 211.275 51.2954C211.402 51.27 211.538 51.2277 211.682 51.1685C211.952 51.0627 212.185 50.9146 212.38 50.7241L212.558 50.9082L212.094 51.6763C211.908 51.8244 211.622 51.9471 211.237 52.0444C211.06 52.0868 210.884 52.1206 210.71 52.146C210.537 52.1714 210.382 52.1841 210.247 52.1841C209.358 52.1841 208.656 51.9746 208.14 51.5557C207.628 51.1325 207.372 50.54 207.372 49.7783C207.372 49.5456 207.397 49.298 207.448 49.0356C207.549 48.5236 207.723 48.056 207.968 47.6328C208.083 47.4297 208.216 47.2371 208.368 47.0552C208.521 46.8732 208.688 46.7061 208.87 46.5537C209.229 46.2575 209.636 46.0311 210.088 45.8745C210.545 45.7179 211.028 45.6396 211.536 45.6396C211.722 45.6396 211.914 45.6523 212.113 45.6777C212.312 45.7031 212.507 45.7391 212.697 45.7856C213.065 45.8703 213.379 46.012 213.637 46.2109L212.888 47.563ZM217.572 46.5283L216.493 52.0508C216.413 52.0508 216.332 52.0508 216.252 52.0508C216.163 52.0381 216.095 52.0296 216.049 52.0254L215.611 52L215.154 52.0254L214.697 52.0508L215.776 46.5283C215.653 46.5283 215.522 46.5304 215.382 46.5347C215.243 46.5347 215.095 46.5368 214.938 46.541C214.845 46.541 214.767 46.5431 214.703 46.5474C214.64 46.5516 214.483 46.5685 214.233 46.5981L213.764 46.6426C213.772 46.6003 213.798 46.5326 213.84 46.4395L213.916 46.1982L213.922 45.9824L213.929 45.7729H216.817H219.718C219.701 45.8491 219.675 45.9211 219.642 45.9888C219.629 46.0184 219.616 46.0522 219.604 46.0903C219.591 46.1284 219.58 46.1644 219.572 46.1982L219.559 46.4204V46.522C219.559 46.5685 219.555 46.6087 219.546 46.6426L219.07 46.5918L218.41 46.541L217.572 46.5283ZM220.435 45.7729H223.152C223.761 45.7729 224.248 45.8724 224.612 46.0713C224.98 46.266 225.164 46.5728 225.164 46.9917C225.164 47.1271 225.156 47.2266 225.139 47.29C225.075 47.6328 224.889 47.9333 224.58 48.1914C224.271 48.4495 223.903 48.5998 223.476 48.6421C223.933 48.7225 224.29 48.8537 224.548 49.0356C224.806 49.2176 224.936 49.5033 224.936 49.8926C224.936 50.0195 224.921 50.1486 224.891 50.2798C224.785 50.8299 224.462 51.2573 223.92 51.562C223.378 51.8625 222.763 52.0127 222.073 52.0127L219.229 52L220.435 45.7729ZM221.152 51.3081H221.552C221.929 51.3081 222.259 51.2108 222.542 51.0161C222.826 50.8215 223 50.5591 223.063 50.229C223.088 50.1021 223.101 49.9899 223.101 49.8926C223.101 49.3213 222.733 49.0356 221.997 49.0356H221.59L221.152 51.3081ZM221.724 48.3564H222.047C222.784 48.3564 223.222 48.02 223.361 47.3472L223.387 47.0869C223.387 46.6426 223.084 46.4204 222.479 46.4204H222.098L221.724 48.3564ZM230.82 50.9336L230.794 51.1812C230.794 51.3081 230.835 51.3991 230.915 51.4541C231 51.5049 231.154 51.5303 231.378 51.5303L231.328 51.8286C230.752 52.0656 230.333 52.1841 230.071 52.1841C229.775 52.1841 229.531 52.0994 229.341 51.9302C229.15 51.7609 229.03 51.5282 228.979 51.2319C228.759 51.5197 228.48 51.7503 228.141 51.9238C227.803 52.0973 227.466 52.1841 227.132 52.1841C226.666 52.1841 226.292 52.0719 226.008 51.8477C225.725 51.6191 225.583 51.2975 225.583 50.8828C225.583 50.7516 225.596 50.612 225.621 50.4639C225.697 50.0661 225.841 49.7466 226.053 49.5054C226.264 49.2599 226.55 49.061 226.91 48.9087C227.079 48.8368 227.291 48.7627 227.544 48.6865C227.798 48.6104 228.076 48.5363 228.376 48.4644C228.85 48.3543 229.188 48.2401 229.392 48.1216C229.468 48.0623 229.531 47.9925 229.582 47.9121C229.633 47.8275 229.669 47.7301 229.69 47.6201C229.69 47.2731 229.59 46.9959 229.392 46.7886C229.197 46.577 228.958 46.4712 228.674 46.4712C228.425 46.4712 228.173 46.5199 227.919 46.6172C227.665 46.7103 227.449 46.8203 227.271 46.9473C227.094 47.0742 226.982 47.1842 226.935 47.2773H226.846L226.821 46.5093C227.176 46.23 227.585 46.0163 228.046 45.8682C228.511 45.7158 228.96 45.6396 229.392 45.6396C229.658 45.6396 229.921 45.665 230.179 45.7158C230.437 45.7666 230.665 45.847 230.864 45.957C231.067 46.0628 231.232 46.2088 231.359 46.395C231.486 46.5812 231.55 46.797 231.55 47.0425C231.55 47.1271 231.537 47.2371 231.512 47.3726L230.82 50.9336ZM229.48 48.6675L229.062 48.8008C228.964 48.8304 228.869 48.8621 228.776 48.896C228.687 48.9256 228.6 48.9574 228.516 48.9912C228.435 49.0208 228.363 49.0526 228.3 49.0864C228.241 49.116 228.171 49.1584 228.09 49.2134C227.773 49.4334 227.561 49.7995 227.456 50.3115C227.43 50.4258 227.417 50.5422 227.417 50.6606C227.417 51.1092 227.599 51.3335 227.963 51.3335C228.581 51.3335 229.004 50.8659 229.233 49.9307L229.48 48.6675ZM234.057 50.0513C234.307 50.0513 234.516 50.1359 234.686 50.3052C234.859 50.4702 234.946 50.6755 234.946 50.9209C234.946 50.9632 234.935 51.0267 234.914 51.1113C234.859 51.4033 234.707 51.6551 234.457 51.8667C234.207 52.0783 233.937 52.1841 233.645 52.1841C233.386 52.1841 233.179 52.0889 233.022 51.8984C232.866 51.708 232.788 51.4456 232.788 51.1113C232.817 50.9294 232.9 50.7559 233.035 50.5908C233.162 50.4258 233.317 50.2946 233.499 50.1973C233.685 50.0999 233.871 50.0513 234.057 50.0513ZM234.032 49.1245L234.057 45.4619C234.057 44.7933 234.093 44.2855 234.165 43.9385C234.216 43.6423 234.366 43.3968 234.616 43.2021C234.87 43.0075 235.143 42.9102 235.435 42.9102C235.625 42.9102 235.782 42.944 235.904 43.0117C236.027 43.0752 236.124 43.1704 236.196 43.2974C236.23 43.3608 236.256 43.4264 236.272 43.4941C236.289 43.5618 236.298 43.6401 236.298 43.729C236.298 43.8433 236.287 43.9385 236.266 44.0146C236.249 44.1204 236.181 44.3384 236.063 44.6685C235.949 44.9943 235.779 45.445 235.555 46.0205L234.997 47.4995C234.853 47.8761 234.732 48.1935 234.635 48.4517C234.542 48.7056 234.463 48.9299 234.4 49.1245H234.032Z" fill="#00A99D"/>
</svg>
